<?xml version="1.0" standalone="no"?>
<!DOCTYPE svg PUBLIC "-//W3C//DTD SVG 1.1//EN" "http://www.w3.org/Graphics/SVG/1.1/DTD/svg11.dtd" >
<svg xmlns="http://www.w3.org/2000/svg" xmlns:xlink="http://www.w3.org/1999/xlink" version="1.1" viewBox="-10 0 1272 2048">
   <path fill="currentColor"
d="M1240 1216v0q10 -12 11 -9t-2.5 14.5t-8.5 22.5t-7 16q-34 72 -83 134q-96 116 -227.5 180t-282.5 64q-168 -4 -306 -84.5t-223.5 -215t-97.5 -301.5q-6 -136 40 -260.5t119 -238.5q72 -120 172 -208.5t235 -131.5q1 0 -0.5 4.5l-3.5 10.5t-3.5 11.5t-2.5 6.5
q-17 37 -38 72q-20 36 -44 69l-2 4q-4 6 -9.5 12.5t-11.5 9.5q-32 9 -62 22q26 -2 61.5 11t51.5 61q27 -53 84.5 -81t157.5 -28l130 -121q78 105 199 105h28l-156 153q-93 0 -165 -62v977q128 -6 244 -61.5t203 -157.5zM175 574v0v0v0v0zM155 608v0q-2 2 -2 4q0 -1 2 -4z
M156 625v0q-59 199 9.5 390t236.5 311q38 26 79 46l-1 -533v-16l-3 -96q0 -22 1 -43v0v0l2 -144v0q0 -45 -24 -77.5t-61 -39.5q-91 40 -166 106q-23 21 -44 45q-1 1 -5 4q-4 5 -10 11q-3 7 -5 13q-5 11 -9 23zM616 1420v0q69 16 139 16v-1006h10q-12 -13 -23 -29
q-65 76 -65 177l6 238l1 16l-3 398q2 45 -6 89t-36 78q-8 10 -23 23z" />
</svg>
