<?xml version="1.0" standalone="no"?>
<!DOCTYPE svg PUBLIC "-//W3C//DTD SVG 20010904//EN"
 "http://www.w3.org/TR/2001/REC-SVG-20010904/DTD/svg10.dtd">
<svg version="1.0" xmlns="http://www.w3.org/2000/svg"
 width="2048.000000pt" height="2048.000000pt" viewBox="0 0 2048.000000 2048.000000"
 preserveAspectRatio="xMidYMid meet">
<metadata>
Created by potrace 1.11, written by Peter Selinger 2001-2013
</metadata>
<g transform="translate(0.000000,2048.000000) scale(0.100000,-0.100000)"
fill="#000000" stroke="none">
<path d="M9595 18441 c-153 -52 -285 -102 -355 -133 -14 -6 -34 -14 -45 -19
-11 -4 -45 -18 -75 -31 -30 -14 -70 -31 -89 -39 -49 -20 -414 -202 -486 -242
-226 -125 -613 -374 -730 -469 -5 -5 -28 -22 -50 -39 -22 -17 -55 -43 -74 -57
-39 -31 -174 -142 -211 -175 -14 -13 -58 -52 -99 -87 -182 -160 -440 -417
-636 -635 -44 -48 -84 -93 -90 -99 -5 -6 -35 -40 -65 -76 -30 -36 -57 -67 -60
-70 -18 -16 -253 -316 -338 -431 -88 -118 -392 -564 -392 -575 0 -2 -60 -99
-133 -216 -74 -117 -164 -265 -201 -328 -36 -63 -71 -122 -76 -130 -51 -85
-217 -391 -311 -575 -363 -713 -636 -1411 -788 -2015 -7 -25 -14 -55 -16 -68
-2 -13 -7 -32 -10 -42 -3 -10 -7 -27 -9 -37 -58 -292 -82 -433 -101 -598 -3
-27 -8 -66 -10 -85 -5 -37 -12 -112 -20 -195 -25 -264 -25 -846 -1 -1030 2
-16 7 -61 11 -100 3 -38 11 -101 16 -140 6 -38 13 -88 15 -110 11 -92 51 -317
81 -450 101 -459 234 -865 415 -1265 85 -187 231 -471 293 -570 14 -22 25 -42
25 -45 0 -3 8 -18 19 -33 10 -15 34 -52 52 -81 200 -323 434 -636 693 -926
112 -125 371 -384 491 -490 55 -49 102 -91 105 -95 22 -24 299 -241 415 -326
99 -71 291 -201 385 -259 19 -12 49 -30 65 -41 17 -10 39 -24 50 -30 11 -6 61
-35 110 -64 142 -83 417 -221 575 -289 80 -34 154 -66 165 -71 11 -5 43 -18
70 -28 294 -115 577 -201 890 -272 22 -5 54 -12 70 -16 47 -11 48 -11 80 -17
201 -37 339 -60 440 -72 28 -3 59 -8 70 -10 11 -2 58 -7 105 -10 47 -4 96 -8
110 -11 158 -25 814 -25 1026 1 16 1 61 6 99 10 39 3 81 8 95 10 14 2 52 7 85
10 116 14 268 39 425 70 69 14 134 27 145 29 202 40 761 210 917 279 18 8 69
29 113 47 74 30 113 46 205 87 90 39 396 196 525 268 147 82 513 314 584 371
9 7 82 62 163 123 81 61 158 119 170 130 109 91 176 147 189 160 9 9 47 43 85
76 152 132 455 443 652 671 139 160 406 540 559 795 264 440 493 936 510 1106
6 52 5 55 -13 45 -20 -11 -57 -49 -169 -177 -442 -502 -970 -939 -1515 -1254
-69 -40 -132 -76 -140 -81 -120 -70 -529 -264 -670 -317 -36 -14 -78 -31 -95
-38 -50 -23 -338 -122 -470 -161 -311 -92 -725 -179 -1000 -210 -33 -3 -68 -8
-77 -10 -9 -1 -52 -6 -95 -9 -43 -4 -93 -8 -112 -10 -18 -3 -76 -7 -127 -10
l-94 -6 0 4886 0 4887 53 -45 c182 -155 459 -320 673 -402 54 -20 115 -44 134
-51 37 -15 245 -69 295 -77 17 -3 57 -10 90 -15 85 -15 152 -21 288 -28 l119
-5 176 174 c171 169 658 647 847 832 51 50 191 188 313 308 l220 217 -196 1
c-109 1 -210 2 -227 3 -501 36 -883 173 -1263 452 -154 113 -334 287 -477 462
-33 40 -71 86 -85 102 l-25 29 -81 -77 c-73 -70 -258 -243 -344 -322 -33 -30
-183 -170 -365 -340 -44 -41 -114 -106 -156 -145 -236 -220 -323 -301 -334
-311 -7 -7 -84 -14 -211 -18 -109 -4 -215 -8 -234 -10 -19 -2 -71 -7 -115 -10
-44 -4 -90 -8 -102 -10 -12 -3 -48 -7 -80 -11 -64 -6 -110 -13 -133 -20 -8 -2
-33 -7 -55 -10 -124 -17 -287 -61 -495 -133 -177 -62 -442 -219 -599 -355
-149 -131 -311 -333 -390 -489 -8 -16 -17 -28 -21 -28 -4 0 -12 19 -19 43 -19
63 -96 212 -145 281 -87 122 -208 218 -336 268 -190 75 -380 116 -548 120 -34
1 -59 5 -55 9 15 13 300 118 460 168 162 51 163 52 221 110 32 32 77 87 100
122 23 35 73 109 111 164 297 431 715 1184 791 1426 17 57 40 130 50 162 10
31 15 57 12 57 -4 -1 -83 -27 -177 -59z m1874 -2066 c65 -86 72 -94 114 -140
20 -23 37 -45 37 -49 0 -3 -20 -6 -45 -6 l-45 0 0 -5031 0 -5031 -187 6 c-104
4 -204 8 -223 11 -19 2 -77 6 -128 10 -51 3 -101 8 -110 10 -9 1 -44 6 -77 9
-33 4 -71 9 -85 11 -14 2 -45 7 -70 10 -25 4 -58 9 -75 11 -16 3 -39 7 -50 9
-42 6 -202 36 -240 45 -22 5 -42 9 -45 10 -3 0 -16 3 -30 6 -14 3 -35 7 -47
10 -21 4 -19 8 24 47 312 282 504 647 559 1062 3 28 8 59 10 70 2 11 6 45 9
75 3 30 7 69 10 85 13 95 17 289 20 1000 2 435 7 1168 10 1630 10 1241 11
2000 2 2270 -4 132 -10 317 -12 410 -2 94 -7 265 -10 380 -3 116 -7 300 -10
410 -3 110 -8 295 -11 410 -9 317 -10 770 -1 860 24 249 87 507 180 740 82
206 261 509 402 679 52 62 59 67 68 50 6 -11 31 -46 56 -79z m-3445 -150 c264
-77 486 -273 625 -553 41 -82 95 -241 105 -307 3 -22 10 -65 15 -95 10 -56 8
-581 -6 -1305 -12 -663 -9 -1040 12 -1565 2 -58 7 -1351 10 -2873 l6 -2769
-143 75 c-119 61 -233 126 -372 210 -123 74 -363 237 -421 284 -5 5 -39 31
-75 58 -98 74 -283 228 -390 324 -93 83 -380 368 -470 466 -261 285 -556 687
-768 1045 -126 215 -304 569 -374 745 -11 28 -26 64 -33 80 -50 112 -168 447
-229 650 -25 84 -110 421 -120 475 -2 14 -13 72 -25 130 -11 58 -23 125 -26
150 -3 25 -8 52 -10 60 -2 8 -7 39 -10 69 -4 30 -8 61 -10 70 -1 9 -6 50 -10
91 -3 41 -8 82 -10 90 -4 15 -14 148 -21 280 -9 165 -3 609 10 750 4 36 8 90
11 120 7 72 16 159 20 190 2 14 7 45 10 70 7 48 7 48 29 185 12 76 50 274 61
325 66 291 141 546 196 668 11 23 31 72 44 108 21 57 40 82 133 177 60 62 149
154 198 206 85 90 203 206 289 286 22 20 117 98 210 173 361 292 698 511 1098
715 173 88 334 166 348 167 4 0 46 -11 93 -25z"/>
</g>
</svg>
